# xmcd
#
# Track frame offsets:
#	150
#	23502
#	43664
#	55676
#	75605
#	93240
#	106840
#	119958
#	140394
#	161747
#	175995
#	190308
#	209371
#	229589
#	233352
#	246214
#	253480
#	261976
#	266967
#
# Disc length: 3635 seconds
#
# Revision: 1
# Processed by: cddbd v1.5.1PL2 Copyright (c) Steve Scherf et al.
# Submitted via: audiograbber 1.83.01
#
DISCID=0c0e3113
DTITLE=Gus Eyre - Love, life, everything
DYEAR=2002
DGENRE=Christian Rock
TTITLE0=Rock'n' roll has gone
TTITLE1=Things that matter
TTITLE2=Love, live, everything
TTITLE3=roll, justice roll
TTITLE4=my precious one
TTITLE5=another page of life
TTITLE6=Big John (Cash, that is)
TTITLE7=the voice of god
TTITLE8=keep looking up
TTITLE9=the hand that holds me
TTITLE10=ain't got nothing left
TTITLE11=happy is the man
TTITLE12=all the true believers
TTITLE13=Acoustik plus 1
TTITLE14=Son, your sins are forgiven
TTITLE15=akoustik plus 2
TTITLE16=thousend fountains
TTITLE17=acoustik plus 3
TTITLE18=akoustik plus 4
EXTD=
EXTT0=
EXTT1=
EXTT2=
EXTT3=
EXTT4=
EXTT5=
EXTT6=
EXTT7=
EXTT8=
EXTT9=
EXTT10=
EXTT11=
EXTT12=
EXTT13=
EXTT14=
EXTT15=
EXTT16=
EXTT17=
EXTT18=
PLAYORDER=
